<svg width="32" height="32" viewBox="0 0 32 32" fill="none" xmlns="http://www.w3.org/2000/svg">
<path d="M10 6.25C9.57812 6.25 9.25 6.625 9.25 7V25C9.25 25.4219 9.57812 25.75 10 25.75H22C22.375 25.75 22.75 25.4219 22.75 25V7C22.75 6.625 22.375 6.25 22 6.25H10ZM7 7C7 5.35938 8.3125 4 10 4H22C23.6406 4 25 5.35938 25 7V25C25 26.6875 23.6406 28 22 28H10C8.3125 28 7 26.6875 7 25V7ZM12.625 10H19.375C19.9844 10 20.5 10.5156 20.5 11.125C20.5 11.7812 19.9844 12.25 19.375 12.25H12.625C11.9688 12.25 11.5 11.7812 11.5 11.125C11.5 10.5156 11.9688 10 12.625 10ZM12.625 14.5H19.375C19.9844 14.5 20.5 15.0156 20.5 15.625C20.5 16.2812 19.9844 16.75 19.375 16.75H12.625C11.9688 16.75 11.5 16.2812 11.5 15.625C11.5 15.0156 11.9688 14.5 12.625 14.5ZM12.625 19H14.875C15.4844 19 16 19.5156 16 20.125C16 20.7812 15.4844 21.25 14.875 21.25H12.625C11.9688 21.25 11.5 20.7812 11.5 20.125C11.5 19.5156 11.9688 19 12.625 19Z" fill="#FF6597"/>
</svg>
