<svg width="40" height="32" viewBox="0 0 40 32" fill="none" xmlns="http://www.w3.org/2000/svg">
<path d="M28 4C30.1875 4 32 5.8125 32 8V28C32 30.25 30.1875 32 28 32H12C9.75 32 8 30.25 8 28V8C8 5.8125 9.75 4 12 4H14.5H15.0625C15.5625 1.75 17.5625 0 20 0C22.375 0 24.4375 1.75 24.875 4H25.5H28ZM13 7H12C11.4375 7 11 7.5 11 8V28C11 28.5625 11.4375 29 12 29H28C28.5 29 29 28.5625 29 28V8C29 7.5 28.5 7 28 7H27V8.5C27 9.375 26.3125 10 25.5 10H20H14.5C13.625 10 13 9.375 13 8.5V7ZM18.5 5C18.5 5.875 19.125 6.5 20 6.5C20.8125 6.5 21.5 5.875 21.5 5C21.5 4.1875 20.8125 3.5 20 3.5C19.125 3.5 18.5 4.1875 18.5 5ZM16.5 17C16.5 17.875 15.8125 18.5 15 18.5C14.125 18.5 13.5 17.875 13.5 17C13.5 16.1875 14.125 15.5 15 15.5C15.8125 15.5 16.5 16.1875 16.5 17ZM19 16H25C25.5 16 26 16.5 26 17C26 17.5625 25.5 18 25 18H19C18.4375 18 18 17.5625 18 17C18 16.5 18.4375 16 19 16ZM19 22H25C25.5 22 26 22.5 26 23C26 23.5625 25.5 24 25 24H19C18.4375 24 18 23.5625 18 23C18 22.5 18.4375 22 19 22ZM15 24.5C14.125 24.5 13.5 23.875 13.5 23C13.5 22.1875 14.125 21.5 15 21.5C15.8125 21.5 16.5 22.1875 16.5 23C16.5 23.875 15.8125 24.5 15 24.5Z" fill="white"/>
</svg>
