<svg width="32" height="32" viewBox="0 0 32 32" fill="none" xmlns="http://www.w3.org/2000/svg">
<path d="M24.25 7.46875L23.7344 7.98438C21.0625 10.6562 17.5 12.1562 13.75 12.25V18.25V18.2969C17.5 18.3438 21.0625 19.8906 23.7344 22.5625L24.25 23.0781V7.46875ZM11.5 10H13.375C16.6562 10 19.7969 8.73438 22.1406 6.39062L23.9219 4.60938C24.8594 3.67188 26.5 4.32812 26.5 5.6875V12.4375C27.3438 12.8594 28 13.9844 28 15.25C28 16.5625 27.3438 17.6875 26.5 18.1094V24.8594C26.5 26.2188 24.8594 26.875 23.9219 25.9375L22.1406 24.1562C19.8906 21.9062 16.8906 20.5938 13.75 20.5469V25.375C13.75 26.8281 12.5312 28 11.125 28H9.625C8.17188 28 7 26.8281 7 25.375V20.5C5.3125 20.5 4 19.1875 4 17.5V13C4 11.3594 5.3125 10 7 10H11.5ZM9.25 20.5V25.375C9.25 25.6094 9.39062 25.75 9.625 25.75H11.125C11.3125 25.75 11.5 25.6094 11.5 25.375V20.5H9.25ZM7 12.25C6.57812 12.25 6.25 12.625 6.25 13V17.5C6.25 17.9219 6.57812 18.25 7 18.25H9.25H11.5V12.25H7Z" fill="#0077CB"/>
</svg>
