<svg width="32" height="32" viewBox="0 0 32 32" fill="none" xmlns="http://www.w3.org/2000/svg">
<path d="M4.23438 5.6875L6.48438 7.1875C7 7.5625 7.14062 8.26562 6.8125 8.78125C6.4375 9.29688 5.73438 9.4375 5.21875 9.0625L2.96875 7.5625C2.45312 7.23438 2.3125 6.53125 2.6875 6.01562C3.01562 5.5 3.71875 5.35938 4.23438 5.6875ZM28.9844 7.5625L26.7344 9.0625C26.2188 9.4375 25.5156 9.29688 25.1875 8.78125C24.8125 8.26562 24.9531 7.5625 25.4688 7.1875L27.7188 5.6875C28.2344 5.35938 28.9375 5.5 29.3125 6.01562C29.6406 6.53125 29.5 7.23438 28.9844 7.5625ZM2.125 13H4.375C4.98438 13 5.5 13.5156 5.5 14.125C5.5 14.7812 4.98438 15.25 4.375 15.25H2.125C1.46875 15.25 1 14.7812 1 14.125C1 13.5156 1.46875 13 2.125 13ZM27.625 13H29.875C30.4844 13 31 13.5156 31 14.125C31 14.7812 30.4844 15.25 29.875 15.25H27.625C26.9688 15.25 26.5 14.7812 26.5 14.125C26.5 13.5156 26.9688 13 27.625 13ZM22 13.75C22 10.4688 19.2812 7.75 16 7.75C12.6719 7.75 10 10.4688 10 13.75V18.25H7.75V13.75C7.75 9.20312 11.4062 5.5 16 5.5C20.5469 5.5 24.25 9.20312 24.25 13.75V18.25H22V13.75ZM7.75 24.25H24.25V22H7.75V24.25ZM5.5 22C5.5 20.7812 6.48438 19.75 7.75 19.75H24.25C25.4688 19.75 26.5 20.7812 26.5 22V24.25C26.5 25.5156 25.4688 26.5 24.25 26.5H7.75C6.48438 26.5 5.5 25.5156 5.5 24.25V22ZM16 10.75C14.3125 10.75 13 12.1094 13 13.75C13 14.1719 12.625 14.5 12.25 14.5C11.8281 14.5 11.5 14.1719 11.5 13.75C11.5 11.2656 13.5156 9.25 16 9.25C16.375 9.25 16.75 9.625 16.75 10C16.75 10.4219 16.375 10.75 16 10.75Z" fill="#0077CB"/>
</svg>
