<svg width="72" height="64" viewBox="0 0 72 64" fill="none" xmlns="http://www.w3.org/2000/svg">
<path d="M31.125 59C27.875 57.75 22.125 56 18 56C13.125 56 6.875 57.625 3 58.875C1.5 59.375 0 58.25 0 56.875V10.5C0 9 0.75 7.625 2.25 7.125C5.75 5.75 11.625 4 18 4C25.25 4 30.875 6.5 33.375 8.5C33.75 8.875 34 9.375 34 9.875V57C34 58.5 32.5 59.5 31.125 59ZM40.75 59C39.375 59.5 38 58.5 38 57V9.875C38 9.375 38.125 8.875 38.625 8.5C41 6.5 46.625 4 54 4C60.25 4 66.125 5.75 69.625 7.125C71.125 7.625 72 9 72 10.5V56.875C72 58.25 70.375 59.375 68.875 58.875C65 57.625 58.75 56 54 56C49.75 56 44.125 57.75 40.75 59Z" fill="#969AFF"/>
</svg>
