<svg width="32" height="32" viewBox="0 0 32 32" fill="none" xmlns="http://www.w3.org/2000/svg">
<path d="M30.8613 24.0953C30.5744 23.4734 30.0627 22.9764 29.424 22.6994C28.7788 22.4151 28.1159 22.1708 27.4391 21.9681L28.1953 20.9776C28.4342 20.6647 28.5929 20.3005 28.6581 19.9155L30.726 7.61775L30.9053 6.55252C31.0168 5.88261 30.8514 5.19689 30.4454 4.64578C30.0394 4.09468 29.4259 3.72319 28.7395 3.61282L28.5994 3.58897C27.9125 3.47969 27.2092 3.64082 26.644 4.03698C26.0788 4.43314 25.6978 5.03195 25.5847 5.70193L25.4788 6.33789L23.9356 15.5163C23.72 15.3216 23.4706 15.166 23.199 15.0568C23.462 14.6043 23.5905 14.0892 23.5701 13.5693C23.5496 13.0495 23.3811 12.5455 23.0833 12.1139C22.9886 11.9789 22.8794 11.8542 22.7574 11.7419C22.8358 11.6584 22.9082 11.5697 22.9741 11.4764C23.2932 11.0153 23.4637 10.4715 23.4637 9.91514C23.4637 9.35872 23.2932 8.81502 22.9741 8.35386C22.7405 8.02269 22.4267 7.75291 22.0605 7.56847C21.6944 7.38404 21.2872 7.29065 20.8752 7.29659H15.7909C14.9077 7.29659 14.1923 7.54302 13.6578 8.02635C13.6578 7.96593 13.6578 7.90552 13.6578 7.84351C13.6612 7.28623 13.4907 6.74113 13.1689 6.28065C12.9348 5.95007 12.6209 5.68084 12.2548 5.49672C11.8888 5.3126 11.4818 5.21927 11.07 5.22497H5.98903C5.08298 5.22497 4.34968 5.48412 3.81029 5.99447C3.2709 6.50483 2.97594 7.24412 2.97594 8.14559V11.1425C2.97303 11.4817 3.01967 11.8195 3.11445 12.1457C2.769 12.3281 2.47297 12.5881 2.25078 12.9041C1.93209 13.3654 1.76184 13.9091 1.76184 14.4654C1.76184 15.0217 1.93209 15.5653 2.25078 16.0267C2.44784 16.3081 2.7039 16.5454 3.00201 16.723C2.92396 16.986 2.88446 17.2585 2.88468 17.5323C2.87964 18.0947 3.05015 18.6454 3.37356 19.111C3.60874 19.4459 3.92535 19.7186 4.29506 19.9048C4.66476 20.091 5.07602 20.1848 5.49201 20.1779H8.23784V20.2542C8.23626 20.6145 8.30943 20.9715 8.45295 21.3035C6.41756 21.4073 4.42032 21.8836 2.56529 22.7074C2.22487 22.8534 1.9176 23.064 1.66135 23.327C1.4051 23.5899 1.20497 23.8999 1.0726 24.239C0.94023 24.5781 0.878259 24.9394 0.890287 25.3021C0.902316 25.6647 0.988105 26.0214 1.14267 26.3514C1.29544 26.6788 1.51287 26.9735 1.78252 27.2188C2.05216 27.4641 2.36874 27.6551 2.71413 27.781C3.05952 27.9068 3.42696 27.9649 3.7954 27.952C4.16385 27.9392 4.52607 27.8556 4.86136 27.706C6.40696 27.0223 8.09518 26.7014 9.79079 26.7687C11.4864 26.8361 13.1423 27.2899 14.6258 28.0939C15.0447 28.3237 15.5173 28.4444 15.9979 28.4444C16.4785 28.4444 16.951 28.3237 17.37 28.0939C18.8481 27.2932 20.4975 26.8402 22.1867 26.7709C23.8759 26.7016 25.5584 27.018 27.1002 27.6948C27.6797 27.9519 28.3304 28.0134 28.9498 27.8697C29.3513 27.7768 29.727 27.5988 30.0501 27.3482C30.3731 27.0976 30.6356 26.7806 30.8189 26.4198C31.0021 26.059 31.1017 25.6633 31.1104 25.2607C31.1191 24.8581 31.0369 24.4586 30.8694 24.0906L30.8613 24.0953Z" fill="black"/>
<path d="M29.3735 24.7392C29.2471 24.4746 29.0264 24.2639 28.7526 24.1462C26.7811 23.2761 24.6383 22.8374 22.4746 22.861C20.3109 22.8847 18.1787 23.37 16.2277 24.2829C16.1557 24.3175 16.0765 24.3354 15.9963 24.3354C15.9161 24.3354 15.8369 24.3175 15.7649 24.2829C13.813 23.3719 11.6807 22.8877 9.51709 22.8641C7.35347 22.8405 5.21065 23.278 3.23833 24.1462C2.95725 24.2675 2.73286 24.487 2.60931 24.7615C2.51782 24.9751 2.49437 25.2106 2.54199 25.4373C2.58962 25.6641 2.70612 25.8716 2.87633 26.0329C3.04654 26.1942 3.26257 26.3017 3.4963 26.3415C3.73002 26.3813 3.97061 26.3515 4.18674 26.256C5.96499 25.4672 7.90822 25.0966 9.86003 25.1742C11.8118 25.2518 13.7177 25.7754 15.4243 26.7027C15.6009 26.7997 15.8001 26.8506 16.0028 26.8506C16.2054 26.8506 16.4047 26.7997 16.5813 26.7027C18.2817 25.7808 20.1794 25.2591 22.1231 25.1793C24.0668 25.0995 26.0027 25.4639 27.7765 26.2433C28.023 26.3579 28.3017 26.3892 28.5685 26.3323C28.7382 26.2944 28.8973 26.2203 29.0343 26.1153C29.1712 26.0103 29.2826 25.877 29.3605 25.725C29.4384 25.573 29.4809 25.4061 29.4848 25.2362C29.4887 25.0663 29.454 24.8977 29.3833 24.7424L29.3735 24.7392Z" fill="#0077CB"/>
<path d="M22.9562 16.8184C22.8711 16.7 22.7571 16.6042 22.6245 16.5395C22.4919 16.4748 22.345 16.4434 22.1968 16.448H19.3353V14.6991H20.9812C21.1293 14.704 21.2764 14.6726 21.4091 14.6079C21.5417 14.5433 21.6556 14.4472 21.7405 14.3287C21.8723 14.132 21.9425 13.9022 21.9425 13.6673C21.9425 13.4323 21.8723 13.2025 21.7405 13.0059C21.6555 12.8875 21.5415 12.7917 21.4089 12.7273C21.2763 12.6628 21.1292 12.6318 20.9812 12.637H16.7443V10.9406H20.8801C21.0283 10.9455 21.1754 10.9142 21.308 10.8495C21.4406 10.7848 21.5546 10.6888 21.6395 10.5702C21.7749 10.3758 21.8454 10.1453 21.8416 9.91036C21.8453 9.67441 21.7747 9.44302 21.6395 9.24738C21.5543 9.12919 21.4402 9.03357 21.3077 8.96917C21.1751 8.90477 21.0281 8.87361 20.8801 8.87852H15.791C15.3151 8.87852 14.9762 8.98346 14.7464 9.1965C14.5166 9.40955 14.4042 9.74661 14.4042 10.2093V13.3668C14.4042 13.8294 14.5166 14.1617 14.7464 14.3795C14.9762 14.5973 15.3151 14.6975 15.791 14.6975H17.0115V16.4464H14.1516C14.0035 16.4418 13.8565 16.4733 13.7239 16.5379C13.5913 16.6026 13.4773 16.6985 13.3922 16.8168C13.2604 17.0134 13.1902 17.2433 13.1902 17.4782C13.1902 17.7132 13.2604 17.943 13.3922 18.1396C13.4771 18.2582 13.5911 18.3542 13.7237 18.4189C13.8563 18.4836 14.0034 18.5149 14.1516 18.5101H22.1968C22.345 18.5147 22.4919 18.4832 22.6245 18.4185C22.7571 18.3538 22.8711 18.258 22.9562 18.1396C23.088 17.943 23.1582 17.7132 23.1582 17.4782C23.1582 17.2433 23.088 17.0134 22.9562 16.8168V16.8184Z" fill="white"/>
<path d="M10.8192 16.4655H5.48395C5.33339 16.4601 5.18387 16.4919 5.04917 16.5577C4.91447 16.6236 4.79892 16.7214 4.71316 16.8423C4.58005 17.0463 4.50935 17.2832 4.50935 17.5251C4.50935 17.767 4.58005 18.0039 4.71316 18.208C4.79892 18.3288 4.91447 18.4267 5.04917 18.4925C5.18387 18.5584 5.33339 18.5901 5.48395 18.5848H9.86099V20.2478C9.85448 20.4117 9.8914 20.5745 9.96818 20.7204C10.045 20.8664 10.159 20.9905 10.2994 21.0809C10.5215 21.221 10.7804 21.2955 11.0449 21.2955C11.3094 21.2955 11.5683 21.221 11.7904 21.0809C11.9307 20.9905 12.0448 20.8664 12.1216 20.7204C12.1984 20.5745 12.2353 20.4117 12.2288 20.2478V17.8248C12.2288 17.3479 12.1147 17.0156 11.88 16.7914C11.6454 16.5672 11.3048 16.4655 10.8192 16.4655Z" fill="white"/>
<path d="M13.1544 13.7976C13.0694 13.6792 12.9554 13.5835 12.8227 13.519C12.6901 13.4546 12.5431 13.4236 12.395 13.4288H9.53671V12.6513C9.53636 12.5901 9.5309 12.5289 9.52042 12.4685H11.1875C11.3355 12.4734 11.4824 12.4423 11.615 12.3779C11.7476 12.3135 11.8617 12.2178 11.9469 12.0996C12.0787 11.903 12.1489 11.6732 12.1489 11.4383C12.1489 11.2033 12.0787 10.9735 11.9469 10.7769C11.8617 10.6585 11.7477 10.5626 11.6152 10.498C11.4826 10.4333 11.3356 10.4018 11.1875 10.4064H6.95058V8.869H11.0864C11.2346 8.87358 11.3816 8.84213 11.5141 8.77745C11.6467 8.71278 11.7607 8.61694 11.8458 8.49855C11.9772 8.30179 12.0472 8.07201 12.0472 7.83716C12.0472 7.60231 11.9772 7.37253 11.8458 7.17577C11.7611 7.05749 11.6474 6.96178 11.515 6.89736C11.3827 6.83293 11.2359 6.80184 11.0881 6.80691H5.98913C5.51492 6.80691 5.17434 6.91184 4.9462 7.12489C4.71806 7.33793 4.60236 7.67499 4.60236 8.13765V11.1362C4.60236 11.5972 4.7148 11.9311 4.9462 12.1473C5.1776 12.3636 5.51492 12.4653 5.98913 12.4653H7.22597C7.21549 12.5257 7.21004 12.5869 7.20968 12.6482V13.4256H4.3514C4.20333 13.4204 4.05629 13.4514 3.92366 13.5159C3.79102 13.5803 3.67702 13.6761 3.59202 13.7945C3.46021 13.9911 3.39001 14.2209 3.39001 14.4559C3.39001 14.6908 3.46021 14.9206 3.59202 15.1173C3.67694 15.2358 3.79088 15.3318 3.9235 15.3965C4.05612 15.4612 4.20321 15.4926 4.3514 15.4877H12.395C12.5432 15.4927 12.6903 15.4614 12.823 15.3967C12.9556 15.332 13.0696 15.236 13.1544 15.1173C13.2862 14.9206 13.3564 14.6908 13.3564 14.4559C13.3564 14.2209 13.2862 13.9911 13.1544 13.7945V13.7976Z" fill="white"/>
<path d="M27.9086 8.12651C27.5534 8.06927 27.1998 8.03111 26.8461 8.00886L24.9444 19.3225C24.922 19.456 24.9326 19.5928 24.9754 19.7216L25.474 21.2113C25.4888 21.2558 25.5158 21.2956 25.5521 21.3261C25.5885 21.3566 25.6328 21.3768 25.6801 21.3843C25.7274 21.3919 25.776 21.3866 25.8204 21.3689C25.8649 21.3513 25.9035 21.3221 25.932 21.2844L26.8918 20.0284C26.9757 19.92 27.0316 19.7935 27.0547 19.6595L28.9499 8.34592C28.611 8.25688 28.2639 8.18375 27.9086 8.12651Z" fill="#F9A12C"/>
<path d="M28.0585 7.24095C28.4137 7.29818 28.7608 7.37132 29.103 7.45717L29.2986 6.29655C29.3406 6.04371 29.2785 5.78492 29.126 5.57649C28.9734 5.36806 28.7426 5.22687 28.4838 5.18363L28.3437 5.16138C28.0833 5.12055 27.817 5.18216 27.6031 5.33268C27.3893 5.4832 27.2454 5.71034 27.203 5.96427L27.0074 7.12488C27.348 7.14396 27.7032 7.18371 28.0585 7.24095Z" fill="#FB8CB0"/>
</svg>
